Animal-Regular.ufo
<glyph name="ampersand" format="2">
	<advance width="614"/>
	<unicode hex="0026"/>
	<outline>
		<contour>
			<point x="505" y="0" type="curve" smooth="yes"/>
			<point x="540" y="0"/>
			<point x="558" y="20"/>
			<point x="558" y="42" type="curve" smooth="yes"/>
			<point x="558" y="65"/>
			<point x="540" y="84"/>
			<point x="505" y="84" type="curve" smooth="yes"/>
			<point x="395" y="84"/>
			<point x="182" y="406"/>
			<point x="182" y="544" type="curve" smooth="yes"/>
			<point x="182" y="605"/>
			<point x="214" y="640"/>
			<point x="253" y="640" type="curve" smooth="yes"/>
			<point x="293" y="640"/>
			<point x="327" y="604"/>
			<point x="327" y="544" type="curve" smooth="yes"/>
			<point x="327" y="440"/>
			<point x="276" y="371"/>
			<point x="201" y="371" type="curve"/>
			<point x="200" y="350" type="line"/>
			<point x="326" y="350"/>
			<point x="409" y="428"/>
			<point x="410" y="544" type="curve" smooth="yes"/>
			<point x="410" y="648"/>
			<point x="340" y="709"/>
			<point x="249" y="709" type="curve" smooth="yes"/>
			<point x="162" y="709"/>
			<point x="94" y="648"/>
			<point x="94" y="544" type="curve" smooth="yes"/>
			<point x="94" y="371"/>
			<point x="346" y="0"/>
		</contour>
		<contour>
			<point x="216" y="-9" type="curve" smooth="yes"/>
			<point x="312" y="-9"/>
			<point x="377" y="53"/>
			<point x="377" y="146" type="curve"/>
			<point x="346" y="146" type="line"/>
			<point x="346" y="96"/>
			<point x="314" y="64"/>
			<point x="257" y="64" type="curve" smooth="yes"/>
			<point x="170" y="64"/>
			<point x="112" y="121"/>
			<point x="112" y="207" type="curve" smooth="yes"/>
			<point x="112" y="280"/>
			<point x="141" y="329"/>
			<point x="185" y="329" type="curve"/>
			<point x="185" y="351" type="line"/>
			<point x="88" y="351"/>
			<point x="23" y="281"/>
			<point x="23" y="177" type="curve" smooth="yes"/>
			<point x="23" y="66"/>
			<point x="100" y="-9"/>
		</contour>
		<contour>
			<point x="349" y="148" type="curve"/>
			<point x="379" y="148" type="line"/>
			<point x="379" y="248"/>
			<point x="430" y="292"/>
			<point x="509" y="292" type="curve" smooth="yes"/>
			<point x="537" y="292"/>
			<point x="553" y="312"/>
			<point x="553" y="335" type="curve" smooth="yes"/>
			<point x="553" y="359"/>
			<point x="536" y="381"/>
			<point x="504" y="381" type="curve" smooth="yes"/>
			<point x="409" y="381"/>
			<point x="349" y="291"/>
		</contour>
	</outline>
</glyph>
<glyph name="parenleft" format="2">
	<advance width="305"/>
	<unicode hex="0028"/>
	<outline>
		<contour>
			<point x="217" y="-158" type="curve" smooth="yes"/>
			<point x="239" y="-158"/>
			<point x="249" y="-144"/>
			<point x="249" y="-129" type="curve" smooth="yes"/>
			<point x="249" y="-92"/>
			<point x="148" y="49"/>
			<point x="148" y="311" type="curve" smooth="yes"/>
			<point x="148" y="563"/>
			<point x="249" y="695"/>
			<point x="249" y="732" type="curve" smooth="yes"/>
			<point x="249" y="747"/>
			<point x="239" y="760"/>
			<point x="217" y="760" type="curve" smooth="yes"/>
			<point x="194" y="760"/>
			<point x="181" y="748"/>
			<point x="164" y="720" type="curve" smooth="yes"/>
			<point x="99" y="611"/>
			<point x="53" y="472"/>
			<point x="53" y="311" type="curve" smooth="yes"/>
			<point x="53" y="140"/>
			<point x="100" y="-9"/>
			<point x="164" y="-117" type="curve" smooth="yes"/>
			<point x="181" y="-145"/>
			<point x="194" y="-158"/>
		</contour>
	</outline>
</glyph>
<glyph name="parenright" format="2">
	<advance width="314"/>
	<unicode hex="0029"/>
	<outline>
		<contour>
			<point x="112" y="-158" type="curve" smooth="yes"/>
			<point x="135" y="-158"/>
			<point x="148" y="-146"/>
			<point x="165" y="-117" type="curve" smooth="yes"/>
			<point x="229" y="-10"/>
			<point x="276" y="140"/>
			<point x="276" y="311" type="curve" smooth="yes"/>
			<point x="276" y="472"/>
			<point x="230" y="611"/>
			<point x="165" y="719" type="curve" smooth="yes"/>
			<point x="148" y="748"/>
			<point x="135" y="760"/>
			<point x="112" y="760" type="curve" smooth="yes"/>
			<point x="90" y="760"/>
			<point x="80" y="747"/>
			<point x="80" y="732" type="curve" smooth="yes"/>
			<point x="80" y="695"/>
			<point x="181" y="563"/>
			<point x="181" y="311" type="curve" smooth="yes"/>
			<point x="181" y="49"/>
			<point x="80" y="-92"/>
			<point x="80" y="-130" type="curve" smooth="yes"/>
			<point x="80" y="-145"/>
			<point x="90" y="-158"/>
		</contour>
	</outline>
</glyph>
<glyph name="comma" format="2">
	<advance width="210"/>
	<unicode hex="002C"/>
	<outline>
		<contour>
			<point x="85" y="-143" type="curve" smooth="yes"/>
			<point x="130" y="-102"/>
			<point x="169" y="-41"/>
			<point x="169" y="26" type="curve" smooth="yes"/>
			<point x="169" y="83"/>
			<point x="141" y="110"/>
			<point x="104" y="110" type="curve" smooth="yes"/>
			<point x="65" y="110"/>
			<point x="39" y="87"/>
			<point x="39" y="50" type="curve" smooth="yes"/>
			<point x="39" y="14"/>
			<point x="65" y="-10"/>
			<point x="104" y="-10" type="curve" smooth="yes"/>
			<point x="134" y="-10"/>
			<point x="155" y="19"/>
			<point x="155" y="49" type="curve"/>
			<point x="119" y="37" type="line"/>
			<point x="119" y="-27"/>
			<point x="82" y="-72"/>
			<point x="47" y="-104" type="curve" smooth="yes"/>
			<point x="19" y="-132"/>
			<point x="54" y="-170"/>
		</contour>
	</outline>
</glyph>
<glyph name="period" format="2">
	<advance width="205"/>
	<unicode hex="002E"/>
	<outline>
		<contour>
			<point x="102" y="-10" type="curve" smooth="yes"/>
			<point x="137" y="-10"/>
			<point x="163" y="17"/>
			<point x="163" y="51" type="curve" smooth="yes"/>
			<point x="163" y="83"/>
			<point x="135" y="110"/>
			<point x="102" y="110" type="curve" smooth="yes"/>
			<point x="67" y="110"/>
			<point x="42" y="83"/>
			<point x="42" y="51" type="curve" smooth="yes"/>
			<point x="42" y="17"/>
			<point x="67" y="-10"/>
		</contour>
	</outline>
</glyph>
<glyph name="five" format="2">
	<advance width="482"/>
	<unicode hex="0035"/>
	<outline>
		<contour>
			<point x="212" y="-10" type="curve" smooth="yes"/>
			<point x="339" y="-10"/>
			<point x="433" y="75"/>
			<point x="433" y="203" type="curve" smooth="yes"/>
			<point x="433" y="335"/>
			<point x="348" y="423"/>
			<point x="225" y="423" type="curve" smooth="yes"/>
			<point x="129" y="423" type="line"/>
			<point x="153" y="405" type="line"/>
			<point x="153" y="653" type="line"/>
			<point x="120" y="621" type="line"/>
			<point x="355" y="621" type="line" smooth="yes"/>
			<point x="382" y="621"/>
			<point x="401" y="637"/>
			<point x="401" y="661" type="curve" smooth="yes"/>
			<point x="401" y="684"/>
			<point x="382" y="700"/>
			<point x="354" y="700" type="curve" smooth="yes"/>
			<point x="116" y="700" type="line" smooth="yes"/>
			<point x="89" y="700"/>
			<point x="72" y="683"/>
			<point x="72" y="659" type="curve" smooth="yes"/>
			<point x="72" y="423" type="line" smooth="yes"/>
			<point x="72" y="376"/>
			<point x="106" y="345"/>
			<point x="144" y="345" type="curve" smooth="yes"/>
			<point x="224" y="345" type="line" smooth="yes"/>
			<point x="290" y="345"/>
			<point x="338" y="285"/>
			<point x="338" y="196" type="curve" smooth="yes"/>
			<point x="338" y="119"/>
			<point x="285" y="69"/>
			<point x="218" y="69" type="curve" smooth="yes"/>
			<point x="176" y="69"/>
			<point x="136" y="84"/>
			<point x="113" y="102" type="curve" smooth="yes"/>
			<point x="72" y="134"/>
			<point x="20" y="83"/>
			<point x="68" y="41" type="curve" smooth="yes"/>
			<point x="103" y="10"/>
			<point x="160" y="-10"/>
		</contour>
	</outline>
</glyph>
<glyph name="question" format="2">
	<advance width="411"/>
	<unicode hex="003F"/>
	<outline>
		<contour>
			<point x="193" y="170" type="curve" smooth="yes"/>
			<point x="216" y="170"/>
			<point x="235" y="189"/>
			<point x="235" y="221" type="curve" smooth="yes"/>
			<point x="235" y="390"/>
			<point x="378" y="354"/>
			<point x="378" y="558" type="curve" smooth="yes"/>
			<point x="378" y="663"/>
			<point x="312" y="739"/>
			<point x="199" y="739" type="curve" smooth="yes"/>
			<point x="90" y="739"/>
			<point x="23" y="654"/>
			<point x="24" y="573" type="curve" smooth="yes"/>
			<point x="25" y="533"/>
			<point x="48" y="512"/>
			<point x="79" y="512" type="curve" smooth="yes"/>
			<point x="106" y="512"/>
			<point x="130" y="530"/>
			<point x="129" y="562" type="curve" smooth="yes"/>
			<point x="129" y="588"/>
			<point x="111" y="611"/>
			<point x="80" y="611" type="curve"/>
			<point x="96" y="565" type="line"/>
			<point x="96" y="615"/>
			<point x="136" y="660"/>
			<point x="199" y="660" type="curve" smooth="yes"/>
			<point x="261" y="660"/>
			<point x="294" y="612"/>
			<point x="294" y="549" type="curve" smooth="yes"/>
			<point x="294" y="389"/>
			<point x="151" y="431"/>
			<point x="151" y="220" type="curve" smooth="yes"/>
			<point x="151" y="188"/>
			<point x="169" y="170"/>
		</contour>
		<component base="period" xOffset="91" yOffset="-1"/>
	</outline>
</glyph>
<glyph name="at" format="2">
	<advance width="994"/>
	<unicode hex="0040"/>
	<outline>
		<contour>
			<point x="403" y="-210" type="curve" smooth="yes"/>
			<point x="471" y="-210"/>
			<point x="544" y="-198"/>
			<point x="585" y="-178" type="curve" smooth="yes"/>
			<point x="655" y="-146"/>
			<point x="614" y="-74"/>
			<point x="549" y="-104" type="curve" smooth="yes"/>
			<point x="514" y="-120"/>
			<point x="461" y="-131"/>
			<point x="418" y="-131" type="curve" smooth="yes"/>
			<point x="258" y="-131"/>
			<point x="152" y="28"/>
			<point x="152" y="267" type="curve" smooth="yes"/>
			<point x="152" y="511"/>
			<point x="301" y="673"/>
			<point x="525" y="673" type="curve" smooth="yes"/>
			<point x="732" y="673"/>
			<point x="871" y="525"/>
			<point x="871" y="304" type="curve" smooth="yes"/>
			<point x="871" y="163"/>
			<point x="834" y="70"/>
			<point x="778" y="70" type="curve" smooth="yes"/>
			<point x="722" y="70"/>
			<point x="685" y="149"/>
			<point x="685" y="269" type="curve" smooth="yes"/>
			<point x="685" y="474" type="line"/>
			<point x="636" y="506"/>
			<point x="566" y="528"/>
			<point x="511" y="528" type="curve" smooth="yes"/>
			<point x="376" y="528"/>
			<point x="285" y="411"/>
			<point x="285" y="235" type="curve" smooth="yes"/>
			<point x="285" y="88"/>
			<point x="348" y="-10"/>
			<point x="443" y="-10" type="curve" smooth="yes"/>
			<point x="523" y="-10"/>
			<point x="581" y="46"/>
			<point x="598" y="135" type="curve"/>
			<point x="604" y="133" type="line"/>
			<point x="627" y="45"/>
			<point x="690" y="-9"/>
			<point x="775" y="-9" type="curve" smooth="yes"/>
			<point x="889" y="-9"/>
			<point x="965" y="120"/>
			<point x="965" y="316" type="curve" smooth="yes"/>
			<point x="965" y="577"/>
			<point x="791" y="751"/>
			<point x="529" y="751" type="curve" smooth="yes"/>
			<point x="246" y="751"/>
			<point x="58" y="556"/>
			<point x="58" y="263" type="curve" smooth="yes"/>
			<point x="58" y="-21"/>
			<point x="196" y="-210"/>
		</contour>
		<contour>
			<point x="468" y="69" type="curve" smooth="yes"/>
			<point x="415" y="69"/>
			<point x="379" y="137"/>
			<point x="379" y="239" type="curve" smooth="yes"/>
			<point x="379" y="360"/>
			<point x="432" y="438"/>
			<point x="506" y="438" type="curve" smooth="yes"/>
			<point x="536" y="438"/>
			<point x="562" y="428"/>
			<point x="591" y="416" type="curve"/>
			<point x="591" y="280" type="line" smooth="yes"/>
			<point x="591" y="153"/>
			<point x="541" y="69"/>
		</contour>
	</outline>
</glyph>
<glyph name="E" format="2">
	<advance width="442"/>
	<unicode hex="0045"/>
	<anchor x="239" y="700" name="top"/>
	<outline>
		<contour>
			<point x="129" y="0" type="curve" smooth="yes"/>
			<point x="390" y="0" type="line" smooth="yes"/>
			<point x="417" y="0"/>
			<point x="436" y="16"/>
			<point x="436" y="39" type="curve" smooth="yes"/>
			<point x="436" y="63"/>
			<point x="417" y="79"/>
			<point x="389" y="79" type="curve" smooth="yes"/>
			<point x="140" y="79" type="line"/>
			<point x="177" y="51" type="line"/>
			<point x="177" y="650" type="line"/>
			<point x="140" y="621" type="line"/>
			<point x="390" y="621" type="line" smooth="yes"/>
			<point x="417" y="621"/>
			<point x="436" y="637"/>
			<point x="436" y="661" type="curve" smooth="yes"/>
			<point x="436" y="684"/>
			<point x="417" y="700"/>
			<point x="389" y="700" type="curve" smooth="yes"/>
			<point x="130" y="700" type="line" smooth="yes"/>
			<point x="102" y="700"/>
			<point x="83" y="679"/>
			<point x="83" y="647" type="curve"/>
			<point x="83" y="51" type="line" smooth="yes"/>
			<point x="83" y="20"/>
			<point x="102" y="0"/>
		</contour>
		<contour>
			<point x="120" y="304" type="line"/>
			<point x="319" y="304" type="line" smooth="yes"/>
			<point x="347" y="304"/>
			<point x="366" y="320"/>
			<point x="366" y="343" type="curve" smooth="yes"/>
			<point x="366" y="367"/>
			<point x="347" y="382"/>
			<point x="319" y="382" type="curve" smooth="yes"/>
			<point x="120" y="382" type="line"/>
		</contour>
	</outline>
</glyph>
<glyph name="F" format="2">
	<advance width="442"/>
	<unicode hex="0046"/>
	<outline>
		<contour>
			<point x="129" y="-10" type="curve" smooth="yes"/>
			<point x="158" y="-10"/>
			<point x="177" y="13"/>
			<point x="177" y="47" type="curve"/>
			<point x="177" y="650" type="line"/>
			<point x="140" y="621" type="line"/>
			<point x="390" y="621" type="line" smooth="yes"/>
			<point x="417" y="621"/>
			<point x="436" y="637"/>
			<point x="436" y="661" type="curve" smooth="yes"/>
			<point x="436" y="684"/>
			<point x="417" y="700"/>
			<point x="389" y="700" type="curve" smooth="yes"/>
			<point x="130" y="700" type="line" smooth="yes"/>
			<point x="102" y="700"/>
			<point x="83" y="679"/>
			<point x="83" y="647" type="curve"/>
			<point x="83" y="47" type="line" smooth="yes"/>
			<point x="83" y="13"/>
			<point x="102" y="-10"/>
		</contour>
		<contour>
			<point x="124" y="292" type="line"/>
			<point x="319" y="292" type="line" smooth="yes"/>
			<point x="347" y="292"/>
			<point x="366" y="308"/>
			<point x="366" y="332" type="curve" smooth="yes"/>
			<point x="366" y="355"/>
			<point x="347" y="371"/>
			<point x="319" y="371" type="curve" smooth="yes"/>
			<point x="124" y="371" type="line"/>
		</contour>
	</outline>
</glyph>
<glyph name="G" format="2">
	<advance width="557"/>
	<unicode hex="0047"/>
	<outline>
		<contour>
			<point x="320" y="-10" type="curve" smooth="yes"/>
			<point x="436" y="-10"/>
			<point x="512" y="56"/>
			<point x="512" y="155" type="curve" smooth="yes"/>
			<point x="512" y="281" type="line" smooth="yes"/>
			<point x="512" y="308"/>
			<point x="495" y="325"/>
			<point x="470" y="325" type="curve" smooth="yes"/>
			<point x="335" y="325" type="line" smooth="yes"/>
			<point x="307" y="325"/>
			<point x="288" y="309"/>
			<point x="288" y="286" type="curve" smooth="yes"/>
			<point x="288" y="262"/>
			<point x="307" y="246"/>
			<point x="334" y="246" type="curve" smooth="yes"/>
			<point x="470" y="246" type="line"/>
			<point x="428" y="275" type="line"/>
			<point x="428" y="154" type="line" smooth="yes"/>
			<point x="428" y="103"/>
			<point x="385" y="69"/>
			<point x="320" y="69" type="curve" smooth="yes"/>
			<point x="206" y="69"/>
			<point x="172" y="181"/>
			<point x="172" y="350" type="curve" smooth="yes"/>
			<point x="172" y="564"/>
			<point x="229" y="631"/>
			<point x="320" y="631" type="curve" smooth="yes"/>
			<point x="389" y="631"/>
			<point x="430" y="590"/>
			<point x="430" y="527" type="curve"/>
			<point x="451" y="554" type="line"/>
			<point x="422" y="554"/>
			<point x="402" y="537"/>
			<point x="402" y="510" type="curve" smooth="yes"/>
			<point x="402" y="481"/>
			<point x="423" y="462"/>
			<point x="454" y="462" type="curve" smooth="yes"/>
			<point x="485" y="462"/>
			<point x="506" y="488"/>
			<point x="506" y="527" type="curve" smooth="yes"/>
			<point x="506" y="637"/>
			<point x="434" y="710"/>
			<point x="320" y="710" type="curve" smooth="yes"/>
			<point x="133" y="710"/>
			<point x="78" y="566"/>
			<point x="78" y="350" type="curve" smooth="yes"/>
			<point x="78" y="74"/>
			<point x="172" y="-10"/>
		</contour>
	</outline>
</glyph>
<glyph name="H" format="2">
	<advance width="587"/>
	<unicode hex="0048"/>
	<outline>
		<contour>
			<point x="456" y="-10" type="curve" smooth="yes"/>
			<point x="486" y="-10"/>
			<point x="504" y="13"/>
			<point x="504" y="47" type="curve" smooth="yes"/>
			<point x="504" y="653" type="line" smooth="yes"/>
			<point x="504" y="687"/>
			<point x="485" y="710"/>
			<point x="457" y="710" type="curve" smooth="yes"/>
			<point x="429" y="710"/>
			<point x="410" y="687"/>
			<point x="410" y="653" type="curve" smooth="yes"/>
			<point x="410" y="47" type="line" smooth="yes"/>
			<point x="410" y="13"/>
			<point x="429" y="-10"/>
		</contour>
		<contour>
			<point x="129" y="-10" type="curve" smooth="yes"/>
			<point x="158" y="-10"/>
			<point x="177" y="13"/>
			<point x="177" y="47" type="curve" smooth="yes"/>
			<point x="177" y="653" type="line" smooth="yes"/>
			<point x="177" y="687"/>
			<point x="158" y="710"/>
			<point x="130" y="710" type="curve" smooth="yes"/>
			<point x="102" y="710"/>
			<point x="83" y="687"/>
			<point x="83" y="653" type="curve" smooth="yes"/>
			<point x="83" y="47" type="line" smooth="yes"/>
			<point x="83" y="13"/>
			<point x="102" y="-10"/>
		</contour>
		<contour>
			<point x="154" y="305" type="line"/>
			<point x="425" y="305" type="line"/>
			<point x="425" y="386" type="line"/>
			<point x="154" y="386" type="line"/>
		</contour>
	</outline>
</glyph>
<glyph name="I" format="2">
	<advance width="270"/>
	<unicode hex="0049"/>
	<anchor x="136" y="700" name="top"/>
	<outline>
		<contour>
			<point x="135" y="-10" type="curve" smooth="yes"/>
			<point x="164" y="-10"/>
			<point x="183" y="13"/>
			<point x="183" y="47" type="curve" smooth="yes"/>
			<point x="183" y="653" type="line" smooth="yes"/>
			<point x="183" y="687"/>
			<point x="164" y="710"/>
			<point x="136" y="710" type="curve" smooth="yes"/>
			<point x="107" y="710"/>
			<point x="89" y="687"/>
			<point x="89" y="653" type="curve" smooth="yes"/>
			<point x="89" y="47" type="line" smooth="yes"/>
			<point x="89" y="13"/>
			<point x="107" y="-10"/>
		</contour>
	</outline>
</glyph>
<glyph name="J" format="2">
	<advance width="455"/>
	<unicode hex="004A"/>
	<outline>
		<contour>
			<point x="200" y="-10" type="curve" smooth="yes"/>
			<point x="309" y="-10"/>
			<point x="377" y="65"/>
			<point x="377" y="179" type="curve" smooth="yes"/>
			<point x="377" y="653" type="line" smooth="yes"/>
			<point x="377" y="687"/>
			<point x="358" y="710"/>
			<point x="330" y="710" type="curve" smooth="yes"/>
			<point x="302" y="710"/>
			<point x="283" y="687"/>
			<point x="283" y="653" type="curve" smooth="yes"/>
			<point x="283" y="179" type="line" smooth="yes"/>
			<point x="283" y="113"/>
			<point x="242" y="69"/>
			<point x="190" y="69" type="curve" smooth="yes"/>
			<point x="132" y="69"/>
			<point x="97" y="105"/>
			<point x="97" y="160" type="curve"/>
			<point x="79" y="137" type="line"/>
			<point x="110" y="137"/>
			<point x="131" y="154"/>
			<point x="131" y="180" type="curve"/>
			<point x="131" y="210"/>
			<point x="110" y="230"/>
			<point x="77" y="230" type="curve" smooth="yes"/>
			<point x="45" y="230"/>
			<point x="23" y="202"/>
			<point x="23" y="162" type="curve" smooth="yes"/>
			<point x="23" y="60"/>
			<point x="91" y="-10"/>
		</contour>
	</outline>
</glyph>
<glyph name="K" format="2">
	<advance width="546"/>
	<unicode hex="004B"/>
	<outline>
		<contour>
			<point x="488" y="-10" type="curve" smooth="yes"/>
			<point x="505" y="-10"/>
			<point x="528" y="6"/>
			<point x="528" y="26" type="curve" smooth="yes"/>
			<point x="528" y="36"/>
			<point x="525" y="50"/>
			<point x="516" y="65" type="curve" smooth="yes"/>
			<point x="293" y="422" type="line"/>
			<point x="292" y="329" type="line"/>
			<point x="520" y="642" type="line" smooth="yes"/>
			<point x="527" y="651"/>
			<point x="530" y="663"/>
			<point x="530" y="674" type="curve" smooth="yes"/>
			<point x="530" y="693"/>
			<point x="511" y="710"/>
			<point x="489" y="710" type="curve" smooth="yes"/>
			<point x="466" y="710"/>
			<point x="450" y="699"/>
			<point x="434" y="677" type="curve" smooth="yes"/>
			<point x="257" y="428" type="line" smooth="yes"/>
			<point x="242" y="408"/>
			<point x="236" y="391"/>
			<point x="236" y="373" type="curve" smooth="yes"/>
			<point x="236" y="352"/>
			<point x="246" y="331"/>
			<point x="264" y="302" type="curve" smooth="yes"/>
			<point x="443" y="15" type="line" smooth="yes"/>
			<point x="454" y="-3"/>
			<point x="472" y="-10"/>
		</contour>
		<contour>
			<point x="130" y="-10" type="curve" smooth="yes"/>
			<point x="158" y="-10"/>
			<point x="177" y="13"/>
			<point x="177" y="47" type="curve" smooth="yes"/>
			<point x="177" y="653" type="line" smooth="yes"/>
			<point x="177" y="687"/>
			<point x="158" y="710"/>
			<point x="129" y="710" type="curve" smooth="yes"/>
			<point x="102" y="710"/>
			<point x="83" y="687"/>
			<point x="83" y="653" type="curve" smooth="yes"/>
			<point x="83" y="47" type="line" smooth="yes"/>
			<point x="83" y="13"/>
			<point x="102" y="-10"/>
		</contour>
	</outline>
</glyph>
<glyph name="N" format="2">
	<advance width="613"/>
	<unicode hex="004E"/>
	<anchor x="314" y="700" name="top"/>
	<anchor x="306" y="0" name="bottom"/>
	<outline>
		<contour>
			<point x="125" y="-10" type="curve" smooth="yes"/>
			<point x="150" y="-10"/>
			<point x="164" y="8"/>
			<point x="164" y="37" type="curve" smooth="yes"/>
			<point x="164" y="638" type="line"/>
			<point x="142" y="631" type="line"/>
			<point x="228" y="631" type="line"/>
			<point x="168" y="638" type="line"/>
			<point x="358" y="62" type="line" smooth="yes"/>
			<point x="371" y="16"/>
			<point x="409" y="-10"/>
			<point x="448" y="-10" type="curve" smooth="yes"/>
			<point x="497" y="-10"/>
			<point x="530" y="16"/>
			<point x="530" y="63" type="curve" smooth="yes"/>
			<point x="530" y="663" type="line" smooth="yes"/>
			<point x="530" y="691"/>
			<point x="513" y="710"/>
			<point x="488" y="710" type="curve" smooth="yes"/>
			<point x="462" y="710"/>
			<point x="448" y="691"/>
			<point x="448" y="663" type="curve" smooth="yes"/>
			<point x="448" y="53" type="line"/>
			<point x="466" y="69" type="line"/>
			<point x="400" y="69" type="line"/>
			<point x="443" y="63" type="line"/>
			<point x="253" y="637" type="line" smooth="yes"/>
			<point x="240" y="680"/>
			<point x="213" y="710"/>
			<point x="163" y="710" type="curve" smooth="yes"/>
			<point x="115" y="710"/>
			<point x="83" y="681"/>
			<point x="83" y="637" type="curve" smooth="yes"/>
			<point x="83" y="37" type="line" smooth="yes"/>
			<point x="83" y="8"/>
			<point x="100" y="-10"/>
		</contour>
	</outline>
</glyph>
<glyph name="T" format="2">
	<advance width="444"/>
	<unicode hex="0054"/>
	<outline>
		<contour>
			<point x="221" y="-10" type="curve" smooth="yes"/>
			<point x="250" y="-10"/>
			<point x="269" y="13"/>
			<point x="269" y="47" type="curve" smooth="yes"/>
			<point x="269" y="634" type="line"/>
			<point x="175" y="634" type="line"/>
			<point x="175" y="47" type="line" smooth="yes"/>
			<point x="175" y="13"/>
			<point x="194" y="-10"/>
		</contour>
		<contour>
			<point x="26" y="621" type="curve" smooth="yes"/>
			<point x="418" y="621" type="line" smooth="yes"/>
			<point x="445" y="621"/>
			<point x="464" y="637"/>
			<point x="464" y="661" type="curve" smooth="yes"/>
			<point x="464" y="684"/>
			<point x="445" y="700"/>
			<point x="417" y="700" type="curve"/>
			<point x="27" y="700" type="line"/>
			<point x="-1" y="700"/>
			<point x="-20" y="684"/>
			<point x="-20" y="661" type="curve" smooth="yes"/>
			<point x="-20" y="637"/>
			<point x="-1" y="621"/>
		</contour>
	</outline>
</glyph>
<glyph name="U" format="2">
	<advance width="610"/>
	<unicode hex="0055"/>
	<anchor x="305" y="700" name="top"/>
	<outline>
		<contour>
			<point x="305" y="-10" type="curve" smooth="yes"/>
			<point x="440" y="-10"/>
			<point x="532" y="83"/>
			<point x="532" y="250" type="curve" smooth="yes"/>
			<point x="532" y="653" type="line" smooth="yes"/>
			<point x="532" y="687"/>
			<point x="513" y="710"/>
			<point x="485" y="710" type="curve" smooth="yes"/>
			<point x="457" y="710"/>
			<point x="438" y="687"/>
			<point x="438" y="653" type="curve" smooth="yes"/>
			<point x="438" y="250" type="line" smooth="yes"/>
			<point x="438" y="129"/>
			<point x="382" y="69"/>
			<point x="305" y="69" type="curve" smooth="yes"/>
			<point x="228" y="69"/>
			<point x="172" y="129"/>
			<point x="172" y="250" type="curve" smooth="yes"/>
			<point x="172" y="653" type="line" smooth="yes"/>
			<point x="172" y="687"/>
			<point x="153" y="710"/>
			<point x="125" y="710" type="curve" smooth="yes"/>
			<point x="97" y="710"/>
			<point x="78" y="687"/>
			<point x="78" y="653" type="curve" smooth="yes"/>
			<point x="78" y="250" type="line" smooth="yes"/>
			<point x="78" y="83"/>
			<point x="170" y="-10"/>
		</contour>
	</outline>
</glyph>
<glyph name="X" format="2">
	<advance width="561"/>
	<unicode hex="0058"/>
	<outline>
		<contour>
			<point x="477" y="-11" type="curve" smooth="yes"/>
			<point x="513" y="-11"/>
			<point x="533" y="29"/>
			<point x="509" y="67" type="curve" smooth="yes"/>
			<point x="161" y="673" type="line" smooth="yes"/>
			<point x="146" y="699"/>
			<point x="126" y="709"/>
			<point x="108" y="709" type="curve" smooth="yes"/>
			<point x="75" y="709"/>
			<point x="53" y="676"/>
			<point x="71" y="645" type="curve" smooth="yes"/>
			<point x="421" y="28" type="line" smooth="yes"/>
			<point x="437" y="1"/>
			<point x="457" y="-11"/>
		</contour>
		<contour>
			<point x="83" y="-11" type="curve" smooth="yes"/>
			<point x="99" y="-11"/>
			<point x="114" y="-1"/>
			<point x="127" y="22" type="curve" smooth="yes"/>
			<point x="334" y="370" type="line"/>
			<point x="256" y="395" type="line"/>
			<point x="48" y="49" type="line" smooth="yes"/>
			<point x="32" y="22"/>
			<point x="52" y="-11"/>
		</contour>
		<contour>
			<point x="239" y="341" type="line"/>
			<point x="314" y="315" type="line"/>
			<point x="509" y="643" type="line" smooth="yes"/>
			<point x="527" y="673"/>
			<point x="511" y="710"/>
			<point x="479" y="710" type="curve" smooth="yes"/>
			<point x="462" y="710"/>
			<point x="447" y="701"/>
			<point x="434" y="678" type="curve" smooth="yes"/>
		</contour>
	</outline>
</glyph>
<glyph name="Y" format="2">
	<advance width="573"/>
	<unicode hex="0059"/>
	<anchor x="290" y="700" name="top"/>
	<anchor x="287" y="0" name="bottom"/>
	<anchor x="20" y="700" name="topleft"/>
	<outline>
		<contour>
			<point x="289" y="220" type="curve" smooth="yes"/>
			<point x="313" y="220"/>
			<point x="331" y="231"/>
			<point x="343" y="259" type="curve" smooth="yes"/>
			<point x="513" y="645" type="line" smooth="yes"/>
			<point x="531" y="687"/>
			<point x="504" y="712"/>
			<point x="479" y="712" type="curve" smooth="yes"/>
			<point x="460" y="712"/>
			<point x="444" y="697"/>
			<point x="431" y="667" type="curve" smooth="yes"/>
			<point x="294" y="327" type="line"/>
			<point x="314" y="333" type="line"/>
			<point x="269" y="333" type="line"/>
			<point x="290" y="327" type="line"/>
			<point x="151" y="661" type="line" smooth="yes"/>
			<point x="137" y="695"/>
			<point x="120" y="712"/>
			<point x="99" y="712" type="curve" smooth="yes"/>
			<point x="72" y="712"/>
			<point x="42" y="684"/>
			<point x="59" y="645" type="curve" smooth="yes"/>
			<point x="236" y="258" type="line" smooth="yes"/>
			<point x="248" y="232"/>
			<point x="263" y="220"/>
		</contour>
		<contour>
			<point x="289" y="-10" type="curve" smooth="yes"/>
			<point x="318" y="-10"/>
			<point x="337" y="13"/>
			<point x="337" y="47" type="curve" smooth="yes"/>
			<point x="337" y="271" type="line"/>
			<point x="243" y="272" type="line"/>
			<point x="243" y="47" type="line" smooth="yes"/>
			<point x="243" y="13"/>
			<point x="262" y="-10"/>
		</contour>
	</outline>
</glyph>
<glyph name="e" format="2">
	<advance width="499"/>
	<unicode hex="0065"/>
	<anchor x="261" y="500" name="top"/>
	<outline>
		<contour>
			<point x="286" y="-10" type="curve" smooth="yes"/>
			<point x="350" y="-10"/>
			<point x="424" y="18"/>
			<point x="442" y="64" type="curve" smooth="yes"/>
			<point x="460" y="88"/>
			<point x="440" y="116"/>
			<point x="408" y="103" type="curve" smooth="yes"/>
			<point x="368" y="96"/>
			<point x="360" y="63"/>
			<point x="282" y="63" type="curve" smooth="yes"/>
			<point x="193" y="63"/>
			<point x="158" y="138"/>
			<point x="158" y="250" type="curve" smooth="yes"/>
			<point x="158" y="384"/>
			<point x="207" y="437"/>
			<point x="272" y="437" type="curve" smooth="yes"/>
			<point x="333" y="437"/>
			<point x="365" y="392"/>
			<point x="372" y="304" type="curve" smooth="yes"/>
			<point x="374" y="291"/>
			<point x="374" y="279"/>
			<point x="374" y="265" type="curve"/>
			<point x="402" y="289" type="line"/>
			<point x="134" y="289" type="line"/>
			<point x="128" y="227" type="line"/>
			<point x="408" y="227" type="line"/>
			<point x="434" y="227"/>
			<point x="453" y="245"/>
			<point x="453" y="279" type="curve" smooth="yes"/>
			<point x="453" y="412"/>
			<point x="405" y="510"/>
			<point x="271" y="510" type="curve" smooth="yes"/>
			<point x="130" y="510"/>
			<point x="68" y="406"/>
			<point x="68" y="250" type="curve" smooth="yes"/>
			<point x="68" y="63"/>
			<point x="160" y="-10"/>
		</contour>
	</outline>
</glyph>
<glyph name="i" format="2">
	<advance width="257"/>
	<unicode hex="0069"/>
	<outline>
		<contour>
			<point x="128" y="-11" type="curve" smooth="yes"/>
			<point x="154" y="-11"/>
			<point x="171" y="10"/>
			<point x="171" y="37" type="curve" smooth="yes"/>
			<point x="171" y="463" type="line" smooth="yes"/>
			<point x="171" y="489"/>
			<point x="154" y="510"/>
			<point x="128" y="510" type="curve" smooth="yes"/>
			<point x="102" y="510"/>
			<point x="85" y="489"/>
			<point x="85" y="463" type="curve" smooth="yes"/>
			<point x="85" y="37" type="line" smooth="yes"/>
			<point x="85" y="10"/>
			<point x="102" y="-11"/>
		</contour>
		<contour>
			<point x="128" y="584" type="curve" smooth="yes"/>
			<point x="163" y="584"/>
			<point x="185" y="607"/>
			<point x="185" y="643" type="curve" smooth="yes"/>
			<point x="185" y="676"/>
			<point x="163" y="698"/>
			<point x="128" y="698" type="curve" smooth="yes"/>
			<point x="94" y="698"/>
			<point x="72" y="676"/>
			<point x="72" y="642" type="curve" smooth="yes"/>
			<point x="72" y="607"/>
			<point x="94" y="584"/>
		</contour>
	</outline>
</glyph>
<glyph name="j" format="2">
	<advance width="284"/>
	<unicode hex="006A"/>
	<outline>
		<contour>
			<point x="98" y="-210" type="curve" smooth="yes"/>
			<point x="164" y="-210"/>
			<point x="208" y="-160"/>
			<point x="208" y="-83" type="curve" smooth="yes"/>
			<point x="208" y="463" type="line" smooth="yes"/>
			<point x="208" y="491"/>
			<point x="191" y="510"/>
			<point x="165" y="510" type="curve" smooth="yes"/>
			<point x="139" y="510"/>
			<point x="122" y="491"/>
			<point x="122" y="463" type="curve" smooth="yes"/>
			<point x="122" y="-87" type="line" smooth="yes"/>
			<point x="122" y="-120"/>
			<point x="109" y="-142"/>
			<point x="90" y="-142" type="curve" smooth="yes"/>
			<point x="68" y="-142"/>
			<point x="54" y="-117"/>
			<point x="54" y="-83" type="curve"/>
			<point x="33" y="-155" type="line"/>
			<point x="62" y="-155"/>
			<point x="82" y="-140"/>
			<point x="82" y="-117" type="curve" smooth="yes"/>
			<point x="82" y="-88"/>
			<point x="64" y="-69"/>
			<point x="36" y="-69" type="curve" smooth="yes"/>
			<point x="8" y="-69"/>
			<point x="-11" y="-88"/>
			<point x="-11" y="-117" type="curve" smooth="yes"/>
			<point x="-11" y="-173"/>
			<point x="33" y="-210"/>
		</contour>
		<contour>
			<point x="165" y="585" type="curve" smooth="yes"/>
			<point x="199" y="585"/>
			<point x="221" y="608"/>
			<point x="221" y="643" type="curve" smooth="yes"/>
			<point x="221" y="676"/>
			<point x="198" y="698"/>
			<point x="165" y="697" type="curve" smooth="yes"/>
			<point x="131" y="697"/>
			<point x="109" y="675"/>
			<point x="109" y="642" type="curve" smooth="yes"/>
			<point x="108" y="607"/>
			<point x="131" y="584"/>
		</contour>
	</outline>
</glyph>
<glyph name="o" format="2">
	<advance width="532"/>
	<unicode hex="006F"/>
	<anchor x="266" y="500" name="top"/>
	<outline>
		<contour>
			<point x="267" y="-10" type="curve" smooth="yes"/>
			<point x="409" y="-10"/>
			<point x="464" y="94"/>
			<point x="464" y="250" type="curve" smooth="yes"/>
			<point x="464" y="437"/>
			<point x="385" y="510"/>
			<point x="267" y="510" type="curve" smooth="yes"/>
			<point x="123" y="510"/>
			<point x="68" y="406"/>
			<point x="68" y="250" type="curve" smooth="yes"/>
			<point x="68" y="63"/>
			<point x="148" y="-10"/>
		</contour>
		<contour>
			<point x="269" y="60" type="curve" smooth="yes"/>
			<point x="189" y="60"/>
			<point x="157" y="136"/>
			<point x="157" y="250" type="curve" smooth="yes"/>
			<point x="157" y="387"/>
			<point x="201" y="440"/>
			<point x="267" y="440" type="curve" smooth="yes"/>
			<point x="344" y="440"/>
			<point x="375" y="364"/>
			<point x="375" y="250" type="curve" smooth="yes"/>
			<point x="375" y="113"/>
			<point x="333" y="60"/>
		</contour>
	</outline>
</glyph>
<glyph name="p" format="2">
	<advance width="525"/>
	<unicode hex="0070"/>
	<outline>
		<contour>
			<point x="115" y="-213" type="curve" smooth="yes"/>
			<point x="140" y="-213"/>
			<point x="158" y="-194"/>
			<point x="158" y="-166" type="curve" smooth="yes"/>
			<point x="158" y="50" type="line"/>
			<point x="161" y="50" type="line"/>
			<point x="176" y="15"/>
			<point x="215" y="-10"/>
			<point x="277" y="-10" type="curve" smooth="yes"/>
			<point x="393" y="-10"/>
			<point x="457" y="96"/>
			<point x="457" y="251" type="curve" smooth="yes"/>
			<point x="457" y="398"/>
			<point x="409" y="510"/>
			<point x="292" y="510" type="curve" smooth="yes"/>
			<point x="224" y="510"/>
			<point x="183" y="474"/>
			<point x="162" y="430" type="curve"/>
			<point x="157" y="430" type="line"/>
			<point x="157" y="462" type="line" smooth="yes"/>
			<point x="157" y="493"/>
			<point x="138" y="510"/>
			<point x="115" y="510" type="curve" smooth="yes"/>
			<point x="93" y="510"/>
			<point x="72" y="494"/>
			<point x="72" y="463" type="curve" smooth="yes"/>
			<point x="72" y="-166" type="line" smooth="yes"/>
			<point x="72" y="-194"/>
			<point x="89" y="-213"/>
		</contour>
		<contour>
			<point x="259" y="62" type="curve" smooth="yes"/>
			<point x="208" y="62"/>
			<point x="170" y="82"/>
			<point x="158" y="124" type="curve" smooth="yes"/>
			<point x="158" y="326" type="line" smooth="yes"/>
			<point x="158" y="390"/>
			<point x="193" y="437"/>
			<point x="261" y="437" type="curve" smooth="yes"/>
			<point x="335" y="437"/>
			<point x="369" y="360"/>
			<point x="369" y="245" type="curve" smooth="yes"/>
			<point x="369" y="135"/>
			<point x="329" y="62"/>
		</contour>
	</outline>
</glyph>
<glyph name="q" format="2">
	<advance width="522"/>
	<unicode hex="0071"/>
	<outline>
		<contour>
			<point x="411" y="-210" type="curve" smooth="yes"/>
			<point x="437" y="-210"/>
			<point x="454" y="-189"/>
			<point x="454" y="-163" type="curve" smooth="yes"/>
			<point x="454" y="452" type="line"/>
			<point x="412" y="484"/>
			<point x="351" y="509"/>
			<point x="280" y="509" type="curve" smooth="yes"/>
			<point x="147" y="509"/>
			<point x="68" y="401"/>
			<point x="68" y="241" type="curve" smooth="yes"/>
			<point x="68" y="96"/>
			<point x="130" y="-11"/>
			<point x="236" y="-11" type="curve" smooth="yes"/>
			<point x="295" y="-11"/>
			<point x="344" y="19"/>
			<point x="364" y="74" type="curve"/>
			<point x="368" y="74" type="line"/>
			<point x="368" y="-163" type="line" smooth="yes"/>
			<point x="368" y="-189"/>
			<point x="385" y="-210"/>
		</contour>
		<contour>
			<point x="267" y="63" type="curve" smooth="yes"/>
			<point x="199" y="63"/>
			<point x="157" y="138"/>
			<point x="157" y="248" type="curve" smooth="yes"/>
			<point x="157" y="362"/>
			<point x="209" y="435"/>
			<point x="285" y="435" type="curve" smooth="yes"/>
			<point x="313" y="435"/>
			<point x="343" y="427"/>
			<point x="368" y="411" type="curve"/>
			<point x="368" y="175" type="line" smooth="yes"/>
			<point x="368" y="115"/>
			<point x="330" y="63"/>
		</contour>
	</outline>
</glyph>
<glyph name="r" format="2">
	<advance width="351"/>
	<unicode hex="0072"/>
	<outline>
		<contour>
			<point x="115" y="-10" type="curve" smooth="yes"/>
			<point x="140" y="-10"/>
			<point x="158" y="9"/>
			<point x="158" y="37" type="curve" smooth="yes"/>
			<point x="158" y="305" type="line"/>
			<point x="158" y="371"/>
			<point x="195" y="415"/>
			<point x="291" y="415" type="curve" smooth="yes"/>
			<point x="328" y="415"/>
			<point x="352" y="434"/>
			<point x="352" y="462" type="curve" smooth="yes"/>
			<point x="352" y="490"/>
			<point x="328" y="509"/>
			<point x="291" y="509" type="curve" smooth="yes"/>
			<point x="228" y="509"/>
			<point x="183" y="473"/>
			<point x="160" y="415" type="curve"/>
			<point x="158" y="415" type="line"/>
			<point x="158" y="463" type="line"/>
			<point x="158" y="491"/>
			<point x="140" y="510"/>
			<point x="115" y="510" type="curve" smooth="yes"/>
			<point x="89" y="510"/>
			<point x="72" y="491"/>
			<point x="72" y="463" type="curve"/>
			<point x="72" y="37" type="line" smooth="yes"/>
			<point x="72" y="9"/>
			<point x="89" y="-10"/>
		</contour>
	</outline>
</glyph>
<glyph name="v" format="2">
	<advance width="493"/>
	<unicode hex="0076"/>
	<outline>
		<contour>
			<point x="250" y="-9" type="curve" smooth="yes"/>
			<point x="297" y="-9"/>
			<point x="333" y="23"/>
			<point x="346" y="75" type="curve" smooth="yes"/>
			<point x="443" y="444" type="line" smooth="yes"/>
			<point x="455" y="488"/>
			<point x="435" y="511"/>
			<point x="411" y="511" type="curve" smooth="yes"/>
			<point x="392" y="511"/>
			<point x="372" y="496"/>
			<point x="364" y="466" type="curve" smooth="yes"/>
			<point x="260" y="61" type="line"/>
			<point x="274" y="69" type="line"/>
			<point x="231" y="69" type="line"/>
			<point x="246" y="61" type="line"/>
			<point x="141" y="461" type="line" smooth="yes"/>
			<point x="132" y="496"/>
			<point x="109" y="511"/>
			<point x="89" y="511" type="curve" smooth="yes"/>
			<point x="63" y="511"/>
			<point x="40" y="486"/>
			<point x="51" y="445" type="curve" smooth="yes"/>
			<point x="152" y="75" type="line" smooth="yes"/>
			<point x="166" y="23"/>
			<point x="204" y="-9"/>
		</contour>
	</outline>
</glyph>
<glyph name="z" format="2">
	<advance width="487"/>
	<unicode hex="007A"/>
	<outline>
		<contour>
			<point x="113" y="0" type="curve" smooth="yes"/>
			<point x="397" y="0" type="line" smooth="yes"/>
			<point x="426" y="0"/>
			<point x="444" y="16"/>
			<point x="444" y="39" type="curve" smooth="yes"/>
			<point x="444" y="63"/>
			<point x="426" y="79"/>
			<point x="397" y="79" type="curve" smooth="yes"/>
			<point x="149" y="79" type="line"/>
			<point x="183" y="57" type="line"/>
			<point x="167" y="111" type="line"/>
			<point x="165" y="68" type="line"/>
			<point x="415" y="429" type="line" smooth="yes"/>
			<point x="445" y="471"/>
			<point x="424" y="500"/>
			<point x="377" y="500" type="curve" smooth="yes"/>
			<point x="114" y="500" type="line" smooth="yes"/>
			<point x="86" y="500"/>
			<point x="67" y="484"/>
			<point x="67" y="461" type="curve" smooth="yes"/>
			<point x="67" y="437"/>
			<point x="86" y="421"/>
			<point x="114" y="421" type="curve" smooth="yes"/>
			<point x="330" y="421" type="line"/>
			<point x="301" y="440" type="line"/>
			<point x="326" y="379" type="line"/>
			<point x="323" y="436" type="line"/>
			<point x="76" y="86" type="line" smooth="yes"/>
			<point x="37" y="32"/>
			<point x="59" y="0"/>
		</contour>
	</outline>
</glyph>
<glyph name="idieresis" format="2">
	<advance width="229"/>
	<unicode hex="00EF"/>
	<anchor x="114" y="500" name="_top"/>
	<outline>
		<contour>
			<point x="191" y="585" type="curve" smooth="yes"/>
			<point x="225" y="585"/>
			<point x="248" y="608"/>
			<point x="248" y="643" type="curve" smooth="yes"/>
			<point x="248" y="676"/>
			<point x="225" y="697"/>
			<point x="191" y="697" type="curve" smooth="yes"/>
			<point x="159" y="697"/>
			<point x="136" y="675"/>
			<point x="136" y="642" type="curve" smooth="yes"/>
			<point x="136" y="608"/>
			<point x="159" y="585"/>
		</contour>
		<contour>
			<point x="36" y="585" type="curve" smooth="yes"/>
			<point x="70" y="585"/>
			<point x="92" y="608"/>
			<point x="92" y="643" type="curve" smooth="yes"/>
			<point x="92" y="676"/>
			<point x="70" y="697"/>
			<point x="36" y="697" type="curve" smooth="yes"/>
			<point x="3" y="697"/>
			<point x="-19" y="675"/>
			<point x="-19" y="642" type="curve" smooth="yes"/>
			<point x="-19" y="608"/>
			<point x="3" y="585"/>
		</contour>
		<component base="dotlessi"/>
	</outline>
</glyph>
<glyph name="dotlessi" format="2">
	<advance width="230"/>
	<unicode hex="0131"/>
	<anchor x="114" y="500" name="top"/>
	<outline>
		<contour>
			<point x="114" y="-11" type="curve" smooth="yes"/>
			<point x="140" y="-11"/>
			<point x="158" y="10"/>
			<point x="158" y="37" type="curve" smooth="yes"/>
			<point x="158" y="463" type="line" smooth="yes"/>
			<point x="158" y="489"/>
			<point x="140" y="510"/>
			<point x="115" y="510" type="curve" smooth="yes"/>
			<point x="89" y="510"/>
			<point x="72" y="489"/>
			<point x="72" y="463" type="curve" smooth="yes"/>
			<point x="72" y="37" type="line" smooth="yes"/>
			<point x="72" y="10"/>
			<point x="89" y="-11"/>
		</contour>
	</outline>
</glyph>
<glyph name="bullet" format="2">
	<advance width="483"/>
	<unicode hex="2022"/>
	<outline>
		<contour>
			<point x="242" y="217" type="curve" smooth="yes"/>
			<point x="315" y="217"/>
			<point x="375" y="275"/>
			<point x="375" y="349" type="curve" smooth="yes"/>
			<point x="375" y="351" type="line" smooth="yes"/>
			<point x="375" y="425"/>
			<point x="314" y="484"/>
			<point x="242" y="484" type="curve" smooth="yes"/>
			<point x="170" y="484"/>
			<point x="109" y="425"/>
			<point x="109" y="351" type="curve" smooth="yes"/>
			<point x="109" y="349" type="line" smooth="yes"/>
			<point x="109" y="275"/>
			<point x="169" y="217"/>
		</contour>
	</outline>
</glyph>
<glyph name="fl" format="2">
	<advance width="595"/>
	<unicode hex="FB02"/>
	<outline>
		<contour>
			<point x="43" y="464" type="curve" smooth="yes"/>
			<point x="43" y="437"/>
			<point x="67" y="427"/>
			<point x="86" y="427" type="curve" smooth="yes"/>
			<point x="302" y="427" type="line" smooth="yes"/>
			<point x="320" y="427"/>
			<point x="345" y="437"/>
			<point x="345" y="464" type="curve" smooth="yes"/>
			<point x="345" y="491"/>
			<point x="319" y="500"/>
			<point x="300" y="500" type="curve" smooth="yes"/>
			<point x="88" y="500" type="line" smooth="yes"/>
			<point x="67" y="500"/>
			<point x="43" y="490"/>
		</contour>
		<contour>
			<point x="528" y="715" type="line" smooth="yes"/>
			<point x="528" y="733"/>
			<point x="518" y="760"/>
			<point x="486" y="760" type="curve" smooth="yes"/>
			<point x="457" y="760"/>
			<point x="448" y="737"/>
			<point x="448" y="718" type="curve" smooth="yes"/>
			<point x="448" y="695" type="line"/>
			<point x="446" y="695" type="line"/>
			<point x="422" y="732"/>
			<point x="390" y="760"/>
			<point x="319" y="760" type="curve" smooth="yes"/>
			<point x="222" y="760"/>
			<point x="128" y="706"/>
			<point x="128" y="571" type="curve" smooth="yes"/>
			<point x="128" y="41" type="line" smooth="yes"/>
			<point x="128" y="19"/>
			<point x="140" y="-10"/>
			<point x="171" y="-10" type="curve" smooth="yes"/>
			<point x="201" y="-10"/>
			<point x="214" y="19"/>
			<point x="214" y="41" type="curve" smooth="yes"/>
			<point x="214" y="574" type="line" smooth="yes"/>
			<point x="214" y="669"/>
			<point x="267" y="690"/>
			<point x="326" y="690" type="curve" smooth="yes"/>
			<point x="397" y="690"/>
			<point x="442" y="643"/>
			<point x="442" y="574" type="curve" smooth="yes"/>
			<point x="442" y="37" type="line" smooth="yes"/>
			<point x="442" y="8"/>
			<point x="460" y="-10"/>
			<point x="486" y="-10" type="curve" smooth="yes"/>
			<point x="513" y="-10"/>
			<point x="528" y="12"/>
			<point x="528" y="37" type="curve" smooth="yes"/>
		</contour>
	</outline>
</glyph>
<glyph name="ampersand.salt" format="2">
	<advance width="631"/>
	<outline>
		<contour>
			<point x="231" y="-10" type="curve" smooth="yes"/>
			<point x="315" y="-10"/>
			<point x="370" y="57"/>
			<point x="370" y="157" type="curve"/>
			<point x="341" y="159" type="line"/>
			<point x="341" y="105"/>
			<point x="306" y="69"/>
			<point x="253" y="69" type="curve" smooth="yes"/>
			<point x="177" y="69"/>
			<point x="127" y="122"/>
			<point x="127" y="201" type="curve" smooth="yes"/>
			<point x="127" y="278"/>
			<point x="183" y="330"/>
			<point x="269" y="330" type="curve"/>
			<point x="529" y="329" type="line"/>
			<point x="560" y="329"/>
			<point x="580" y="345"/>
			<point x="580" y="368" type="curve" smooth="yes"/>
			<point x="580" y="392"/>
			<point x="560" y="407"/>
			<point x="528" y="407" type="curve"/>
			<point x="267" y="407" type="line"/>
			<point x="203" y="407"/>
			<point x="160" y="455"/>
			<point x="160" y="528" type="curve" smooth="yes"/>
			<point x="160" y="596"/>
			<point x="203" y="641"/>
			<point x="269" y="641" type="curve" smooth="yes"/>
			<point x="340" y="641"/>
			<point x="388" y="609"/>
			<point x="388" y="560" type="curve"/>
			<point x="388" y="616" type="line"/>
			<point x="361" y="616"/>
			<point x="343" y="598"/>
			<point x="343" y="571" type="curve" smooth="yes"/>
			<point x="343" y="545"/>
			<point x="362" y="528"/>
			<point x="391" y="528" type="curve" smooth="yes"/>
			<point x="420" y="528"/>
			<point x="440" y="545"/>
			<point x="440" y="571" type="curve" smooth="yes"/>
			<point x="440" y="654"/>
			<point x="365" y="710"/>
			<point x="253" y="710" type="curve" smooth="yes"/>
			<point x="141" y="710"/>
			<point x="66" y="638"/>
			<point x="66" y="528" type="curve" smooth="yes"/>
			<point x="66" y="431"/>
			<point x="128" y="366"/>
			<point x="220" y="366" type="curve"/>
			<point x="220" y="374" type="line"/>
			<point x="108" y="374"/>
			<point x="33" y="299"/>
			<point x="33" y="186" type="curve" smooth="yes"/>
			<point x="33" y="69"/>
			<point x="112" y="-10"/>
		</contour>
		<contour>
			<point x="463" y="-10" type="curve" smooth="yes"/>
			<point x="503" y="-10"/>
			<point x="550" y="3"/>
			<point x="573" y="21" type="curve" smooth="yes"/>
			<point x="619" y="59"/>
			<point x="576" y="112"/>
			<point x="534" y="84" type="curve" smooth="yes"/>
			<point x="516" y="74"/>
			<point x="494" y="69"/>
			<point x="478" y="69" type="curve" smooth="yes"/>
			<point x="449" y="69"/>
			<point x="430" y="93"/>
			<point x="430" y="129" type="curve"/>
			<point x="430" y="349" type="line"/>
			<point x="430" y="381"/>
			<point x="412" y="403"/>
			<point x="385" y="403" type="curve" smooth="yes"/>
			<point x="359" y="403"/>
			<point x="341" y="381"/>
			<point x="341" y="349" type="curve"/>
			<point x="341" y="145" type="line"/>
			<point x="341" y="52"/>
			<point x="389" y="-10"/>
		</contour>
	</outline>
</glyph>
